<svg xmlns="http://www.w3.org/2000/svg" xmlns:xlink="http://www.w3.org/1999/xlink" version="1.1" x="0px" y="0px" viewBox="0 0 600 750" style="enable-background:new 0 0 600 600;" xml:space="preserve"><g><path d="M291.2,201.4c0.1,0,0.2,0,0.3,0c1.1-0.2,1.8-1.2,1.7-2.3c-1.9-11.5,0.5-13.5,1-13.8   c1-0.6,1.3-1.8,0.7-2.7c-0.6-1-1.8-1.3-2.7-0.7c-3.6,2.1-4.6,7.9-3,17.9C289.4,200.7,290.3,201.4,291.2,201.4z"/><path d="M282.7,212.3C282.7,212.3,282.7,212.3,282.7,212.3c1.1,0,2-0.9,2.1-1.9c0.1-2.3-0.6-4.4-1.2-6.4   c-0.2-0.8-0.4-1.5-0.6-2.3c-0.5-1.9-0.6-3.8-0.6-5.8c0.1-1.3,0.4-5.5,3.2-6.8c1-0.5,1.4-1.7,1-2.7c-0.5-1-1.7-1.4-2.7-1   c-3.3,1.6-5.3,5.3-5.5,10.2c-0.1,2.3,0.1,4.6,0.7,6.9c0.2,0.8,0.4,1.7,0.7,2.5c0.5,1.8,1,3.5,1,5.2   C280.7,211.4,281.6,212.3,282.7,212.3z"/><path d="M275.3,190.7c-0.9-0.7-2.1-0.5-2.8,0.3c-4.5,5.6-3.6,14.9-1.5,19.6c0.3,0.8,1.1,1.2,1.8,1.2   c0.3,0,0.5-0.1,0.8-0.2c1-0.4,1.5-1.6,1-2.6c-1.7-3.9-2.3-11.4,0.9-15.5C276.3,192.7,276.2,191.4,275.3,190.7z"/><path d="M439.6,157.3c-2.9-6.3-9.4-16.7-21.3-16.7c-9.5,0-17.9,2.5-26.7,7.8c-1.3,0.8-2.3,1.6-3.1,2.3   c0,0-0.1,0.1-0.1,0.1c-1.5,1.4-2.1,2.6-2.7,3.6c-0.6,1.2-0.9,1.7-2.4,2.4c-0.3,0.1-0.6,0.4-0.8,0.6l-1.5,2c-0.8,0.7-4,3.3-7.1,6.7   c-2-0.7-7.4-5.1-12.5-10c-1.3-5.9-5-11.7-11-17.4c-10.8-10.2-16.3-11.1-21-11.9c-2.6-0.4-4.8-0.8-7.9-2.9   c-5.7-3.8-11.6-6.3-15.9-8.2c-2.6-1.1-4.8-2-5.8-2.8c-6.8-5.7-17.8-9.8-20.2-10.7c-3-2.8-7.2-3.6-8.5-3.7   c-10.7-5.7-27.3-9.9-38.9-12.3c-1.4-3-6.1-11.3-18.4-16.7c-9-3.9-16.9-4.4-21.9-4.1c-0.1,0-5.3,0.3-8.2,1.4c-2.2-1-4.5-1.7-6.9-1.7   c0,0,0,0-0.1,0c-4.4,0-6.3,1.9-7.1,3.4c-1.6,0.3-2.6,1-3.2,1.7c-1,1.1-1.5,2.4-1.7,3.5c-1.2,0.3-2.2,0.9-2.9,1.9   c-0.9,1.1-1.3,2.6-1.2,4.1c-2.3,1.7-2.7,3.6-2.6,4.9c0.1,1.7,1.1,3.1,2.1,4.1c-3.9,9.2-3.2,21.7,1.8,31.7   c5.4,10.8,15.1,18,27.5,20.1c3.5,0.6,6.8,0.9,9.8,0.9c23.1,0,32.6-16.6,35.8-24.6c6.4,3.1,14.2,6.2,17.9,6.7   c1.6,0.2,3.3,1.4,5.2,2.6c2.4,1.6,5.2,3.4,8.6,4c1.6,0.3,7,4.5,12.2,8.5c6.8,5.3,15.3,11.9,23.7,16.8c-4.2,3-12.4,9.4-16.7,16   c-3.2,1.3-17,7.6-26.2,23.5c-10.3,17.8-15.7,26.3-18.6,29.4c-1.7,1.9-4.5,7.7-9,17.1c-3,6.2-6.3,13.3-7.7,14.9l-0.5,0.6   c-3.9,4.7-15.7,19-14.2,40.9c1.6,22.1,14.2,32.3,22.7,36.7c1.1,3.8,5.1,14.4,6.6,18.4l-1.4,2c-0.4,0.6-0.5,1.3-0.2,1.9l5.7,14   l-1.1,2.4c-0.1,0.2-0.2,0.5-0.2,0.8c-0.2,3.9,5.2,21,6.8,26.3l-1.3,2.1c-0.3,0.4-0.4,0.9-0.3,1.4l3.5,20.3   c-8.5,10.1-21.8,20.4-29.1,24.1c-2.8,0.7-8.4,2.2-10.8,4.8c-3.9-0.4-9.5,0.5-10.8,5.7c-1.4,5.9-1.2,8.6,1.5,17.5   c0.4,1.3,0.8,2.5,1.1,3.6c1.9,6.1,3.5,11.3,3.2,13.4c-0.3,1.8-1.3,8.2-1.5,13.3h-5.1c-0.5,0-1,0.2-1.4,0.6L196,509   c-4.7,1.1-12.7,5.1-12.7,13.4v10.3c0,0.5,0.2,1,0.6,1.4c0.4,0.4,0.9,0.6,1.4,0.6h0l189.6-0.1c1.1,0,2-0.9,2-2v-11.2   c0-0.1,0-0.2,0-0.4c-0.8-4.4-4.5-9.4-12.4-9.4l-9.7-0.1c-1.5-2.5-4-3.4-5.9-4.1c-0.8-0.3-1.8-0.7-2.1-1c-2.1-2.3-6-3.7-9.9-4.9   c-2.4-0.8-15.5-12.2-17.6-14.4c-1.1-1.3-2.6-10.3-2.6-15.6c0-4.2,5.6-20,8.2-25.3c2.3-4.7,6.4-16.9,7.4-20.1   c2.1-1.3,4.1-3.4,5.9-5.3c0.7-0.7,1.3-1.4,1.7-1.8c2.4-2.1,5.6-9,7.1-14.2c1.3-4.4,3.3-12.5,4-15.4c1.6-0.9,2.6-2.8,3.4-4.3   c0.3-0.5,0.7-1.2,0.8-1.4c0.5-0.6,0.8-1.2,1.1-1.9c0.7-1.6,1.9-4.3,6.9-9.2c6.3-6.2,12.8-22.9,16.2-31.9c0.7-1.7,1.2-3.1,1.6-4   c2.6-6.2,4.7-21.9,4.9-23.5c0.2-2,3.2-15,5.1-19.2c2-4.4,1.2-16.2,0.9-19.2c4.2-9,4.9-18.2,5.6-27.1l0.1-0.8   c0.6-8.4-5.1-16-7.2-18.4c0.3-1.9,0.2-4,0-6.7c-0.1-2.2-0.3-4.8-0.2-7.9c0.1-4.7,0.3-7.3,0.5-8.6c3.9-1.5,8.7-3.1,11.8-3.3   c1.2,0.4,3.9,1.2,7.1-0.2c0.6-0.2,1.2-0.1,2.2,0.1c2.1,0.5,5.3,1.2,8.4-3.5c2.6-1.3,14.3-7.6,18.8-14.3   C444.3,176.4,442.5,163.5,439.6,157.3z M212.2,73.3c8.2,3.6,12.7,8.7,14.9,12c-3.9-0.7-6.8-1.1-7.8-1.3c-4.4-0.5-12.5-2.6-16.8-3.7   l-1.4-0.4c-0.9-0.2-3.2-2.3-5.1-4c-2.1-1.9-4.6-4.1-7.3-6C193.5,69.2,202.1,68.9,212.2,73.3z M161.6,101.7c0.1-3.8,0.7-7.4,2-10.6   c2.9,1.3,7.1,3.5,7.8,4.4c0.8,1.9,0.5,2-0.1,2.3c-0.5,0.3-1.8,0.7-3,1.1C165.9,99.8,163.4,100.6,161.6,101.7z M190,136.9   c-14.2-2.5-21.2-11.2-24.6-18c-1.2-2.4-2.1-4.9-2.7-7.4c1.4,0.3,3.1,0,5.4-1c5-2.2,9.3-2.8,13.2-3.3c1.6-0.2,4.2-0.9,7.1-1.8   c3.5-1,9.2-2.7,11.2-2.4l1,0.3c5,1.6,22.8,7.7,29.1,11.2c0.5,0.3,1,0.6,1.5,0.8C227.8,124.5,217.5,141.7,190,136.9z M237.4,337   c4.5,1.8,7.9,4.9,12,8.7c0.8,0.7,1.5,1.4,2.4,2.2c-0.1,0.4,0,0.9,0.2,1.3c0.3,0.7,6.5,13,13.5,21.2c-0.9,0.3-1.8,0.7-2.6,1.2   c-1,0.7-1.9,1.5-2.5,2.4c-2-1.6-4.7-2.7-7.4-2.3l-1.7-9c-0.4-1.9-0.8-4.2-2.1-6.2c-1.3-2-3.5-3.3-5.9-3.7c0,0,0,0,0,0   C241.5,348.1,238.9,341.3,237.4,337z M259.1,353.9c3.2,2.4,6.9,4.8,11.5,7.1c4.8,2.5,9.4,4.4,13.4,6.1c11,4.6,18.5,7.8,22.7,17.6   c0,0.1-0.1,0.1-0.1,0.2c-0.3,0.5-5.7,8.6-9.9,16.3c-4.7-9.2-14.4-23.8-22.6-28.4C268.8,369.7,262.8,360.4,259.1,353.9z    M246.2,376.9c-0.2-0.9-0.3-1.7-0.3-2.2l1.3-2.8c0.2-0.5,0.3-1.1,0-1.6l-5.6-13.7c1.6,0,3.3,0.8,4.2,2.1c0.9,1.3,1.2,3,1.5,4.7   l1.7,9.1c0.1,0.4,0.3,0.8,0.6,1.1l-1.2,1C247.9,375.1,247,375.9,246.2,376.9z M247.7,382.9c0.7-0.4,1.1-1.1,1.1-1.9   c-0.1-1.1,1.1-2.3,2.4-3.4l2-1.8c0.1,0,0.1-0.1,0.1-0.2c2-0.4,4.2,0.8,5.5,2.3c1.8,2.2,2.7,5.1,3.5,8l3.7,12.9   c0.3,0.9,1.1,1.4,1.9,1.4c0.2,0,0.4,0,0.6-0.1c1.1-0.3,1.7-1.4,1.4-2.5l-3.7-12.9c-0.7-2.5-1.5-5.2-3-7.7c0.2-0.9,0.8-1.7,1.8-2.3   c1.1-0.7,2.5-1,3.8-1.2c1.1,1,2.3,1.9,3.4,2.5c5.5,3.1,12.6,12.4,17.6,20.7c-4.4,1.3-13.6,4.3-21.7,9.3c-0.3-0.7-0.7-1.5-1.1-2.2   c-0.6-1-1.5-2.3-2.9-3c-1.5-0.7-3.1-0.6-4.6-0.4c-1,0.2-3.9,0.6-5.7,2.4c-0.4-0.3-0.9-0.6-1.4-0.8l0.2-0.4c0.3-0.5,0.4-1.1,0.2-1.7   C251.2,395.3,249.2,388.4,247.7,382.9z M264.6,408.4c-2.2,1.6-4.3,3.4-6.1,5.3c-0.3-1.6-0.7-3.3-1.2-4.9c-0.2-0.8-0.5-1.6-0.9-2.4   c0-0.1,0.1-0.3,0.1-0.4c0.6-0.7,1.8-1.1,3.6-1.4c0.8-0.1,1.7-0.2,2.2,0.1c0.5,0.2,0.9,0.9,1.2,1.4   C263.9,406.8,264.3,407.6,264.6,408.4z M254.8,418.7c-0.3,0.4-0.6,0.8-0.9,1.3l-2.3-13.5c0.2,0.2,0.4,0.4,0.6,0.7   c0.6,0.8,0.9,1.9,1.3,2.8c0.5,1.5,0.8,3,1.1,4.6c0.2,1,0.3,2.2,0.1,3.1C254.6,418,254.7,418.4,254.8,418.7z M435.8,182.1   c-4.4,6.6-17.6,13.1-17.7,13.2c-0.3,0.2-0.6,0.4-0.8,0.8c-1.7,2.8-2.5,2.6-4.4,2.2c-1.3-0.3-2.9-0.7-4.7,0.1   c-2.3,1-4.1,0.1-4.2,0.1c-0.3-0.2-0.7-0.3-1-0.2c-3.8,0.1-9.3,2-14.6,4c0,0-0.1,0-0.1,0c-1.4,0.6-2.8,1.1-4.1,1.7l-0.7,0.3   c-2.8,1.2-4.4,4.4-5.6,7.2c-0.1,0.1-0.1,0.2-0.1,0.3c-0.5,0.9-0.2,2,0.6,2.6c0.3,0.2,0.7,0.3,1.1,0.3c0.6,0,1.3-0.3,1.7-0.9   c0.1-0.2,0.2-0.4,0.4-0.9c1.2-2.9,2.3-4.6,3.4-5l0.8-0.3c0.3-0.1,0.6-0.2,0.9-0.4c-0.1,1.6-0.2,3.8-0.3,6.8c-0.1,3.3,0.1,6,0.2,8.2   c0.2,2.9,0.3,5-0.2,6.5c-0.2,0.7,0,1.5,0.5,2c0.1,0.1,7.5,7.8,6.9,16.2l-0.1,0.8c-0.7,9.1-1.3,17.6-5.4,26.1   c-0.2,0.3-0.2,0.7-0.2,1c0.5,5.4,0.8,14.9-0.5,17.8c-2.1,4.5-5.2,17.8-5.5,20.5c-0.2,2.2-2.3,17-4.6,22.3c-0.4,1-0.9,2.4-1.6,4.1   c-3.1,8.1-9.6,24.9-15.3,30.5c-5.6,5.5-7,8.7-7.7,10.5c-0.1,0.3-0.3,0.7-0.4,0.8c-0.5,0.5-0.9,1.3-1.4,2.1c-0.4,0.8-1.4,2.6-2,2.8   c-0.8,0.1-1.4,0.7-1.6,1.5c0,0.1-2.7,11-4.2,16.2c-1.5,5.3-4.5,11-5.9,12.3c-0.6,0.5-1.2,1.2-2,2c-1.4,1.5-3.7,3.9-5.4,4.8   c-0.1,0-0.2,0.1-0.3,0.1c-0.2,0.1-0.5,0.2-0.7,0.2c-0.1,0-0.3,0-0.4,0c0.3-0.2,0.6-0.4,0.8-0.7c0,0,1.2-1.9,3-3.3   c2.4-1.8,7.9-11.2,9-13.1c0.6-1,0.2-2.2-0.7-2.7c-1-0.6-2.2-0.2-2.7,0.7c-3,5-6.9,11-8,11.9c-2.4,1.9-3.9,4.3-4,4.4   c-0.5,0.8-0.4,1.7,0.2,2.3c-5.5-1.5-16.2-6-18.3-8.2l1.1-8.7c0.1-1.1-0.6-2.1-1.7-2.2c-1.1-0.1-2.1,0.6-2.2,1.7l-1.2,9.4   c0,0.3,0,0.6,0.1,0.8c0.2,0.8,1,3.1,12.1,7.7c1.5,0.6,8,3.2,11.9,3.8c-1.6,4.7-4.7,13.7-6.5,17.3c-2.5,5.2-8.6,21.8-8.6,27   c0,2.9,1,15.5,3.7,18.3c1.1,1.1,15.3,14.2,19.3,15.5c2.5,0.8,6.6,2.1,8.1,3.8c1,1,2.3,1.5,3.6,2c2.4,0.9,3.9,1.6,4.4,3.9   c0.2,1.1,0.4,1.7,0.4,2.2c-0.2,0.1-0.5,0.2-0.8,0.3c-0.2,0.1-0.5,0.2-0.8,0.4l-4-5.7c-0.6-0.9-1.9-1.1-2.8-0.5   c-0.9,0.6-1.1,1.9-0.5,2.8l3.2,4.6c-0.8,0.1-1.6,0.1-2.2-0.1c0,0-0.1,0-0.1,0c0-0.2-0.1-0.3-0.1-0.5c-1.2-3.1-3.1-5.7-5.7-7.7   c-0.9-0.7-2.1-0.5-2.8,0.4c-0.7,0.9-0.5,2.1,0.4,2.8c1.7,1.3,3.1,3,4,4.9c-1.3,0-2.8-0.1-4.1-0.2c0-0.2-0.1-0.4-0.2-0.6   c-0.8-1.5-1.5-3.1-2.3-4.6c-0.4-0.8-1.1-2.2-2.6-2.7c-1-0.4-2.2,0.2-2.5,1.2c-0.4,1,0.2,2.1,1.2,2.5c0.1,0.1,0.2,0.3,0.4,0.7   c0.6,1.1,1.1,2.2,1.6,3.3c-2.8,0.2-7.9,0.6-11.1,0.6c-1.1,0-2,0.9-2,2c0,1.1,0.9,2,2,2c0,0,0,0,0,0c4.3,0,11.6-0.6,13.1-0.8   c3.5,0.6,8.8,0.6,10.1,0.5c0.7,0.2,1.4,0.2,2.1,0.2c3.7,0,7.2-2,7.7-2.2c0.1,0,0.2-0.1,0.4-0.1c0.5-0.1,1.4-0.3,2-1.2   c0.6-0.9,0.6-2.1,0.2-4.3l8.3,0c5.3,0,7.9,3.1,8.5,6v9l-185.6,0.1v-8.3c0-7.6,9.6-9.5,10-9.6c0.4-0.1,0.7-0.3,1-0.5l1.6-1.6h4.3   c0,0.2,0,0.5,0.1,0.7c-1.1,1.8-3.3,5.7-2.6,8.6c0.2,0.9,1,1.5,1.9,1.5c0.2,0,0.3,0,0.5-0.1c1.1-0.3,1.7-1.4,1.5-2.4   c-0.3-1.1,1.1-4.1,2.6-6.1c0.4-0.6,0.5-1.4,0.1-2c-0.1-0.3-0.2-1.1-0.2-2c0,0,0-0.1,0-0.1c0,0,0-0.1,0-0.1c0-3.3,0.7-9.5,1.5-14.5   c0.5-3.1-1-7.9-3.3-15.3c-0.4-1.1-0.7-2.3-1.1-3.6c-2.7-8.7-2.7-10.4-1.5-15.4c0.9-3.6,7.4-2.5,7.4-2.5c0.9,0.2,1.8-0.3,2.2-1.2   c0.5-1,4.9-2.9,9.2-3.9c0.2,0,0.3-0.1,0.4-0.2c9.4-4.7,28-19.6,35.7-32.3c6.3-10.3,24.7-17.1,32.9-19.4c1,1.8,1.9,3.6,2.6,5.1   c-0.9,1.9-1.7,3.6-2.1,5c-0.3,0.8-0.6,1.7-0.8,2.5c-2.5,7.2-5,14.7-0.6,22.6c0,0.6,0,1.6,0,2.9c-5.8,2.8-32.7,16.1-35.8,17.6   c-0.3,0.1-0.8,0.4-1.4,0.7c-0.1,0.1-0.2,0.1-0.3,0.2c-5,2.9-17.5,11-19.9,16.9c-1.1,2.6-1.9,6.7-2.8,11.1c-1,5.2-2.2,11.1-3.7,13.2   c-2.9,4-3.2,11.1-3.3,14.2c0,0.5,0,0.8-0.1,1c-0.4,2.6-1.6,8.4-2.3,9.4c-0.7,0.9-0.5,2.1,0.4,2.8c0.4,0.3,0.8,0.4,1.2,0.4   c0.6,0,1.2-0.3,1.6-0.8c1.7-2.3,3.1-11.2,3.1-11.3c0-0.2,0.1-0.7,0.1-1.4c0-0.5,0.1-1.2,0.1-1.9h20.1c0.9,0,1.7-0.6,1.9-1.5   c1.1-3.8,4.3-12.5,5.5-13.7c2.2-2.2,4.6-8.1,4.5-12.4c-0.1-3.4-1.9-17.6-3.1-23.3c0,0,0,0,0,0c2.9-1.4,25.7-12.6,34-16.7   c-0.1,5.2-0.3,12.2-0.6,19c-3.5-1.1-8.3-1.6-11.5-0.7c-3.7,1-6.9,3.2-9.2,6.3c-0.7,0.9-0.5,2.1,0.4,2.8c0.4,0.3,0.8,0.4,1.2,0.4   c0.6,0,1.2-0.3,1.6-0.8c1.7-2.3,4.2-4,7-4.8c2.7-0.7,7.6-0.1,10.3,1c-0.3,6.6-0.8,12.5-1.5,15.3c-1,4.4-2.9,7.7-4.6,10.8   c-1.4,2.5-2.7,4.8-3.4,7.5c0,0-0.1,0-0.1,0c-5-0.7-9.3-3.7-14.1-7.2c-0.9-0.7-2.1-0.5-2.8,0.4c-0.7,0.9-0.5,2.1,0.4,2.8   c5,3.7,10,7,15.8,7.9c0,0,0,0,0,0c-0.7,4.4-1,7.4-1.1,7.6c-0.1,1.1,0.7,2.1,1.8,2.2c0.1,0,0.2,0,0.2,0c1,0,1.9-0.8,2-1.8   c0,0,0.5-4.4,1.5-10.1c0.4-2.4,1.7-4.7,3.2-7.3c1.8-3.2,3.9-6.9,5-11.9c2.1-9,2.4-45.7,2.4-47.2c0-0.4-0.1-0.7-0.3-1   c-3.8-6.5-1.7-13,0.7-19.8c0.3-0.9,0.6-1.7,0.9-2.6c1.7-5.3,7.8-15.3,11.4-20.8c0.5,0.6,1.2,1.3,2.1,1.7c1.8,0.8,3.9,0.6,6.2-0.5   c2.3-1.1,4.3-2.5,6-3.6c-1.3,3.4-2.7,6.9-3.5,8.1c-1,1.5-2.5,4.9-4.1,8.2c-1,2.1-2.2,4.7-2.5,5.2c-1.3,1.5-0.6,3.8,0.8,5.2   c0.8,0.8,1.8,1.2,2.7,1.2c0.7,0,1.4-0.3,2-0.8c0.8-0.7,0.9-2,0.2-2.8c-0.5-0.6-1.4-0.8-2.1-0.6c0-0.1-0.1-0.1-0.1-0.2   c0.5-0.8,1.3-2.4,2.7-5.6c1.3-2.9,2.9-6.4,3.8-7.7c1.8-2.6,5.2-12.4,5.6-13.5c0.3-0.8,0.1-1.6-0.5-2.1c-1.7-1.6-3.8-0.2-6.9,1.8   c-1.6,1.1-3.6,2.4-5.8,3.5c-1,0.5-1.9,0.7-2.5,0.6c2.8-1.7,6.7-5.1,11.7-10.3c1.9-2,4.3-1.8,6.2-1.7c1.2,0.1,2.2,0.2,3.1-0.3   c1.7-1,13.6-10.6,16.2-24.4c1.7-9,4.8-14.4,6.5-17.1c0.6-0.1,1.1-0.4,1.4-0.9c1.6-2.7,7.8-9.1,10.1-11.3c0.8-0.8,0.8-2,0-2.8   c-0.8-0.8-2-0.8-2.8,0c-0.2,0.2-2.7,2.6-5.2,5.4c0.4-1.3,0.9-2.4,1.2-3.1l0.3-0.6c1.5-2.4,2.1-3.7,2.1-10.2   c-0.3-13,2.5-39.1,4-43.1c0.7-1.9-0.4-4.3-1.7-6.3c0.1,0,0.3,0,0.4,0c1.1,0.4,5.5,2.6,8.2,3.9c0.3,0.1,0.6,0.2,0.9,0.2   c0.7,0,1.4-0.4,1.8-1.1c0.5-1,0.1-2.2-0.9-2.7c-0.7-0.4-7.3-3.6-8.7-4.1c-0.9-0.3-2.4-0.2-6.9,0.1c-3,0.3-6.7,0.6-8.3,0.4   c-2-0.3-4.5,0.2-7.2,0.7c-2.3,0.4-4.9,0.9-6.2,0.7c-5.2-0.9-12.5-5-13.6-8.5c-0.3-1.1-1.5-1.6-2.5-1.3c-1.1,0.3-1.6,1.5-1.3,2.5   c1.3,4.1,6.5,7.6,11.4,9.6c-5.1,2.9-13.1,6.3-15.6,7.2c-3.3,1.2-7.5,2.2-8.8,2.3c-0.7,0.1-1.3,0.4-1.6,1c-0.1,0.2-2.2,4-3.2,6.3   c-1.2,2.9-2.4,4.4-3.1,4.7c-0.5,0.2-0.8,0.6-1,1c-0.6,1.4-1.5,3.1-2.4,4.8c0,0,0,0.1-0.1,0.1c-1.8,3.1-3.8,5.9-5.4,6.8   c-5.1-3.8-10.5-5.9-10.9-6.1c-0.2-0.1-0.3-0.1-0.5-0.1c-4.2-5.4-11.7-15.9-14.1-25.8c-2.9-12-15.5-16.7-16-16.9   c-1-0.4-2.2,0.2-2.6,1.2c-0.4,1,0.2,2.2,1.2,2.6c0.1,0,11.1,4.1,13.5,14.1c2.6,10.6,10.4,21.7,14.9,27.3c2.1,2.6,10.4,11,16.5,17.1   c2.7,2.7,5.5,5.5,5.8,5.9c0.6,0.7,4.5,5.2,8.7,9.9c3.4,3.9,7.2,8.2,7.7,8.8c0.1,0.2,0.3,0.4,1.1,1.1c7,6.6,11.2,11.4,12.4,14.4   c0.1,0.2,0.2,0.4,0.3,0.5c1.5,1.8,4.1,5.3,4.5,7.2c0.1,0.4,0.3,0.7,0.5,1c1.7,1.8,3.9,4.3,4.2,5.1c0.1,0.3,0.2,0.6,0.5,0.9   c-3.4,4.5-6.9,7.2-7.8,7.8c-0.2,0-0.6,0-0.9-0.1c-2.2-0.2-6.2-0.5-9.4,2.9c-4.1,4.2-7.1,7-9.2,8.6c-4.7-12.5-13.9-16.4-25.5-21.2   c-3.9-1.7-8.4-3.5-13.1-5.9c-9.7-4.9-15.3-10.1-20.2-14.7c-4.5-4.1-8.3-7.7-13.9-9.8c-6.8-2.5-22.8-11-24.5-35.2   c-1.4-20.2,9.6-33.6,13.3-38l0.5-0.6c1.5-1.9,4.1-7.2,8.2-15.8c3.1-6.5,6.9-14.5,8.3-16.1c3.1-3.4,8.5-11.9,19.1-30.1   c9.6-16.4,24.6-21.9,24.8-22c0.4-0.2,0.8-0.4,1-0.8c4.3-7,14.4-14.3,17.5-16.5c3.2,1.7,6.4,3.1,9.5,4c-0.1,1.4-0.3,2.6-0.6,3.4   c-0.7,2.1-1.5,5-2.2,7.9l-1.8,0.9c-2.8,1.4-5.7,2.8-8.5,4.2c-1,0.5-1.4,1.7-0.9,2.7c0.4,0.7,1.1,1.1,1.8,1.1c0.3,0,0.6-0.1,0.9-0.2   c2.4-1.2,4.8-2.4,7.2-3.6c-0.7,2.9-1.6,6.4-1.8,7c-0.1,0.2-0.7,0.9-1.2,1.5c-3.1,3.9-10.3,13.2-9.3,22.2c0.1,1,1,1.8,2,1.8   c0.1,0,0.2,0,0.2,0c1.1-0.1,1.9-1.1,1.8-2.2c-0.8-7.4,5.7-15.7,8.4-19.3c0.9-1.2,1.3-1.7,1.6-2.2c0.5-1,1.1-3.5,2.3-8.3   c0.3-1.1,0.5-2.1,0.8-3.2c0.2-0.4,0.3-0.8,0.3-1.3c0.7-2.9,1.5-5.7,2.1-7.8c2.1-6.2,0.3-25.2,0.1-27.4c-0.1-1.1-1.1-1.9-2.2-1.8   c-1.1,0.1-1.9,1.1-1.8,2.2c0.4,3.7,1,11.8,0.9,18.2c-11.5-3.9-24.9-14.3-34.9-22.1c-7.5-5.8-11.5-8.9-14-9.3   c-2.6-0.5-4.9-2-7.1-3.4c-2.3-1.5-4.4-2.9-6.9-3.3c-3.8-0.5-14.7-5-21.6-8.8c-6.9-3.9-25.5-10.2-29.9-11.6c0,0,0,0,0,0l0,0   c-0.3-0.1-0.5-0.2-0.7-0.2c-0.1,0-0.2,0-0.2,0l-9.9-2.8c-1.1-0.3-2.2,0.3-2.5,1.4s0.3,2.2,1.4,2.5l1.1,0.3   c-1.2,0.3-2.4,0.7-3.7,1.1c-2.6,0.8-5.1,1.5-6.4,1.7c-4.2,0.5-8.9,1.2-14.4,3.6c-1.7,0.7-2.5,0.8-2.8,0.8c-0.2,0-0.2,0-0.2,0   c-0.2-0.2-0.5-1.1-0.6-1.9c0.9-1,4.9-2.3,6.7-2.9c1.6-0.5,2.8-0.9,3.6-1.4c4.1-2.2,2.5-6,1.9-7.5c-1.1-2.7-8.9-6.1-10.5-6.7   c-0.2-0.4-0.5-0.7-0.9-0.9c-0.2-0.1-0.5-0.2-0.7-0.2c-0.5-0.5-0.9-1-0.9-1.5c0-0.4,0.3-0.9,1-1.4l5.9,2.6c0.3,0.1,0.5,0.2,0.8,0.2   c0.8,0,1.5-0.4,1.8-1.2c0.4-1,0-2.2-1-2.6l-5.9-2.6c0-0.4,0.1-0.9,0.4-1.3c0.1-0.1,0.4-0.5,1.4-0.5l7,1.9c0.2,0,0.4,0.1,0.5,0.1   c0.9,0,1.7-0.6,1.9-1.5c0.3-1.1-0.3-2.2-1.4-2.5l-5.6-1.5c0.1-0.4,0.3-0.8,0.6-1.1c0.1-0.1,0.5-0.5,1.4-0.5l5.8,1.7   c0.2,0.1,0.4,0.1,0.6,0.1c0.9,0,1.7-0.6,1.9-1.4c0.3-1.1-0.3-2.2-1.4-2.5l-3-0.9c0.5-0.2,1.2-0.3,2.1-0.3c0,0,0,0,0,0   c5.8,0,12,5.6,16.5,9.6c2.9,2.6,4.9,4.5,6.8,4.9l1.4,0.4c4.4,1.1,12.6,3.3,17.3,3.8c3.9,0.4,34.9,5.6,50.8,14.2   c0.2,0.1,0.5,0.2,0.8,0.2c0,0,4.3,0.4,6.8,3c0.2,0.2,0.5,0.4,0.8,0.5c0.1,0,12.5,4.4,19.4,10.1c0,0,0.1,0.1,0.1,0.1   c1.4,1,3.7,2,6.7,3.3c4.4,1.9,9.9,4.2,15.2,7.8c3.7,2.5,6.6,3,9.4,3.5c4.4,0.8,9,1.6,19,10.9c6.8,6.4,10.3,13,10.3,19.5   c0,6.9-3.9,11.1-5.1,12.2c-0.8,0.8-0.8,2-0.1,2.8c0.4,0.4,0.9,0.6,1.5,0.6c0.5,0,1-0.2,1.4-0.5c1.4-1.4,5.9-6.2,6.3-14.1   c3,2.7,6.5,5.6,9.3,7.1c-1.8,2.2-3.3,4.5-4.2,6.7c-1.1,2.6-2.2,4.4-3.2,5.9c-1.7,2.6-3.1,4.8-2,8.2c2.2,7,8.5,10.9,19.4,12.1   c1.1,0.1,2.1-0.7,2.2-1.8s-0.7-2.1-1.8-2.2c-13.6-1.5-15.4-7.4-16-9.4c-0.5-1.5,0-2.4,1.6-4.8c1-1.6,2.4-3.6,3.6-6.6   c2-4.9,8.4-10.9,11.4-13.6c0.3,1.8,0.6,3.6,0.9,4.6c0.7,2.3,0.9,6.3-0.4,6.7c-1,0.4-1.6,1.5-1.2,2.6c0.3,0.8,1.1,1.3,1.9,1.3   c0.2,0,0.4,0,0.7-0.1c4.8-1.7,3.7-9,2.9-11.7c-0.3-1.1-0.9-4.6-1.2-7.1c0.6-0.3,1.1-0.7,1.6-1.1c0.5,2.9,1.8,5.5,3.2,7.3   c0.4,0.5,1,0.8,1.6,0.8c0.4,0,0.9-0.1,1.2-0.4c0.9-0.7,1-1.9,0.4-2.8c-2-2.6-3.3-6.8-2-10.6c0.6-0.5,1.3-1,2.2-1.6   c8.1-4.9,15.9-7.2,24.6-7.2c9.6,0,15.2,9,17.7,14.4C438.5,164.5,439.9,175.9,435.8,182.1z M255.7,483.2c0.1,3.3-2,8.1-3.4,9.4   c-2.1,2.1-5,10.6-6.1,14H228c0.4-2.3,1-4.6,2-6.1c2-2.8,3.2-8.6,4.4-14.7c0.8-4,1.6-8.1,2.6-10.4c1.5-3.7,10.3-10.1,16-13.6   C254,468,255.6,480.2,255.7,483.2z M299.7,306.5c-0.9-2.8-0.3-11.1,0-14.6c1-1.7,1.7-3.3,2.2-4.2c1.6-1,3.1-3.2,4.4-6.4   c0.6-1.5,1.8-3.8,2.5-5.1c2.2-0.4,5.9-1.3,8.7-2.3c2.8-1,14.3-5.7,19.3-9.5c0.1,0,0.2,0,0.2,0c2,0.4,4.7-0.1,7.6-0.7   c2.2-0.4,4.6-0.9,5.9-0.7c2,0.3,5.7,0,9.2-0.3c0.1,0,0.1,0,0.2,0c1.4,1.8,2.7,3.9,2.6,4.6c-1.8,4.9-4.6,31.5-4.3,44.6   c0,5.5-0.4,6.2-1.5,8l-0.4,0.6c-1.5,2.4-2.9,8.4-3.5,11c-0.1,0.1-0.2,0.3-0.3,0.5c-1.5,2.3-5.7,8.5-7.8,19.7   c-0.7,3.7-2.2,7.1-3.9,10c-0.8-1.2-2.1-2.8-3.9-4.6c-0.9-3.2-4.1-7.2-5.1-8.2c-2.1-4.7-8.6-11-13.2-15.4c-0.4-0.3-0.6-0.6-0.8-0.7   c-0.4-0.4-1.7-2-7.8-8.9c-3.8-4.3-8.1-9.2-8.6-9.8c-0.2-0.2-0.6-0.6-1.2-1.3c0.1-1.7-0.2-3.2-0.7-4.7   C299.8,307.5,299.8,307,299.7,306.5z M293.8,299.8c0.5-0.4,1-0.9,1.5-1.4c0,0.9-0.1,1.8-0.1,2.8   C294.7,300.7,294.3,300.2,293.8,299.8z M294.7,307c-2.1-2.1-4.6-4.6-6.9-7C290.5,302,293.1,304.4,294.7,307z"/><path d="M399.1,180.6c0.5,0,1-0.2,1.4-0.6c0.8-0.8,0.7-2.1-0.1-2.8c-1.5-1.5-2.2-3.7-1.8-5.8   c0.2-1.1-0.5-2.1-1.6-2.3c-1.1-0.2-2.1,0.5-2.3,1.6c-0.7,3.4,0.5,7,3,9.5C398.1,180.5,398.6,180.6,399.1,180.6z"/><path d="M410.1,188.9c-2.5-0.3-3.6-2-4-3.4c-0.6-1.9-3.2-3.6-3.9-4.1c-0.9-0.6-2.2-0.3-2.8,0.6   c-0.6,0.9-0.3,2.2,0.6,2.8c1,0.6,2.1,1.6,2.2,2c0.5,1.6,2.3,5.5,7.3,6.1c0.1,0,0.2,0,0.3,0c1,0,1.9-0.7,2-1.8   C411.9,190.1,411.2,189.1,410.1,188.9z"/><path d="M411.7,180.9c-0.6,0.2-1.3,0.2-1.8,0c-1-0.4-2.2,0.1-2.6,1.2c-0.4,1,0.1,2.2,1.2,2.6   c0.7,0.3,1.5,0.4,2.3,0.4c0.9,0,1.7-0.2,2.5-0.5c1-0.4,1.5-1.6,1.1-2.6C413.9,181,412.7,180.5,411.7,180.9z"/><path d="M419.6,177.3c-1.3,0.2-2.7,0.2-4.1,0.1c-1.1-0.1-2.1,0.7-2.2,1.8c-0.1,1.1,0.7,2.1,1.8,2.2   c0.6,0.1,1.3,0.1,1.9,0.1c1,0,2-0.1,3-0.2c1.1-0.1,1.9-1.1,1.7-2.2S420.7,177.2,419.6,177.3z"/><path d="M422.8,171.5c-0.9,0.2-1.9,0.2-2.8,0.1c-1.1-0.1-2.1,0.6-2.2,1.7c-0.1,1.1,0.6,2.1,1.7,2.2   c0.5,0.1,1.1,0.1,1.6,0.1c0.8,0,1.7-0.1,2.5-0.2c1.1-0.2,1.8-1.3,1.6-2.4C424.9,171.9,423.9,171.3,422.8,171.5z"/><path d="M430.2,169.6c-0.8,0.7-1.7,1.1-2.8,1.3c-1.1,0.2-1.8,1.2-1.6,2.3c0.2,1,1,1.6,2,1.6c0.1,0,0.2,0,0.4,0   c1.7-0.3,3.3-1.1,4.7-2.2c0.8-0.7,0.9-2,0.2-2.8C432.3,169,431,168.9,430.2,169.6z"/><path d="M403.7,177.6c0.4,0.4,1.5,1.4,3,1.4c0.1,0,0.1,0,0.2,0c1.1-0.1,1.9-1,1.9-2.1c-0.1-1.1-0.9-1.9-2-1.9   c-0.1,0-0.2-0.1-0.4-0.3c-0.8-0.8-1.5-1.8-2-2.8c-0.5-1-1.7-1.4-2.7-0.9c-1,0.5-1.4,1.7-0.9,2.7   C401.5,175.1,402.5,176.4,403.7,177.6z"/><path d="M398.7,189.1c-0.6-0.4-2-2.5-2.7-3.6c-0.7-1-1.2-1.8-1.7-2.3c-1.1-1.2-4.5-4.4-4.6-4.5   c-0.8-0.8-2.1-0.7-2.8,0.1c-0.8,0.8-0.7,2.1,0.1,2.8c0.9,0.9,3.5,3.3,4.4,4.2c0.3,0.3,0.8,1.1,1.3,1.9c1.7,2.6,2.9,4.3,4.3,5   c0.3,0.1,0.6,0.2,0.9,0.2c0.8,0,1.5-0.4,1.8-1.1C400.1,190.8,399.7,189.6,398.7,189.1z"/><path d="M379.8,186.6c-0.3-0.1-1.3-0.5-1.8-1c-0.5-0.5-1.1-0.8-1.7-1.1c-1.1-0.5-1.5-0.8-1.6-1.2   c-0.1-1.2,1-2.9,1.4-3.5c0.7-0.9,0.5-2.1-0.3-2.8c-0.9-0.7-2.1-0.5-2.8,0.3c-0.3,0.3-2.5,3.3-2.2,6.3c0.3,2.7,2.6,3.9,3.9,4.4   c0.2,0.1,0.6,0.3,0.6,0.3c1.1,1.1,2.9,2,4.1,2.1c0.1,0,0.1,0,0.2,0c1,0,1.9-0.8,2-1.8C381.7,187.7,380.9,186.7,379.8,186.6z"/><path d="M372.4,189.3c-0.7-0.5-1.7-2.2-2.1-3.1h0c-0.5-1-1.6-1.4-2.7-1c-1,0.5-1.4,1.7-1,2.7   c0.3,0.5,1.6,3.3,3.3,4.6c0.4,0.3,0.8,0.4,1.2,0.4c0.6,0,1.2-0.3,1.6-0.8C373.5,191.2,373.3,190,372.4,189.3z"/><path d="M329.7,227.9l-0.4,0.3c-2.7,1.9-7.2,5.1-13.5,4.4c-2.4-0.3-7.2-6.6-10.2-12.4c-0.5-1-1.7-1.3-2.7-0.8   c-1,0.5-1.3,1.7-0.8,2.7c1.2,2.3,7.6,13.9,13.3,14.5c0.8,0.1,1.5,0.1,2.2,0.1c6.6,0,11.3-3.3,14-5.2l0.3-0.2   c0.9-0.6,1.1-1.9,0.5-2.8C331.9,227.5,330.6,227.3,329.7,227.9z"/><path d="M357.1,204.8c-2.2,1.6-7.2,7-7.7,7.6c-0.7,0.8-0.7,2.1,0.1,2.8c0.4,0.4,0.9,0.5,1.3,0.5   c0.5,0,1.1-0.2,1.5-0.7c1.4-1.6,5.5-5.9,7.1-7c0.9-0.6,1.1-1.9,0.5-2.8C359.2,204.3,358,204.1,357.1,204.8z"/><path d="M311.1,250.5c0.9-0.6,1.1-1.9,0.5-2.8c-0.1-0.1-0.2-0.2-0.2-0.4c-0.9-1.4-2.6-4.2-7.4-4.4   c-3-0.1-6.7-2.2-7.9-3.1c-0.9-0.6-2.2-0.4-2.8,0.5c-0.6,0.9-0.4,2.2,0.5,2.8c0.2,0.1,5.3,3.6,10.1,3.8c2.6,0.1,3.4,1.4,4.1,2.5   c0.1,0.2,0.3,0.4,0.4,0.6c0.4,0.5,1,0.8,1.6,0.8C310.3,250.9,310.7,250.8,311.1,250.5z"/><path d="M313,259.9c-0.1-1.1-1.1-1.9-2.2-1.8c-1.1,0.1-1.9,1.1-1.8,2.2c0.3,2.9,1.6,5.7,3.5,7.8   c0.4,0.4,0.9,0.7,1.5,0.7c0.5,0,1-0.2,1.3-0.5c0.8-0.7,0.9-2,0.1-2.8C314.1,263.9,313.3,261.9,313,259.9z"/><path d="M293.6,264.4c3.1-1.3,6.3-3.1,7.4-3.8c1-0.6,1.3-1.8,0.7-2.7c-0.6-1-1.8-1.3-2.7-0.7   c-2.7,1.6-6.5,3.5-9,4.3c-2.1-1.6-4.3-3.3-7-5.1c-0.9-0.6-2.2-0.4-2.8,0.5c-0.6,0.9-0.4,2.2,0.5,2.8c7.7,5.4,12,8.8,18,16   c0.4,0.5,1,0.7,1.5,0.7c0.5,0,0.9-0.2,1.3-0.5c0.8-0.7,1-2,0.3-2.8C299,269.5,296.4,266.9,293.6,264.4z"/><path d="M322.2,413.4c0.3-0.4,6.6-10.3,8.9-14.3c0.6-1,0.2-2.2-0.7-2.7c-1-0.6-2.2-0.2-2.7,0.7   c-2.3,3.9-8.8,14.1-8.9,14.2c-0.6,0.9-0.3,2.2,0.6,2.8c0.3,0.2,0.7,0.3,1.1,0.3C321.2,414.4,321.9,414,322.2,413.4z"/><path d="M336.3,399.7c-1-0.6-2.2-0.2-2.7,0.7c-2.1,3.5-7.5,12-8.6,13.8c-3.9,2.6-4.2,3.1-4.4,3.4   c-0.6,0.9-0.4,2.2,0.6,2.8c0.3,0.2,0.7,0.3,1.1,0.3c0.6,0,1.2-0.3,1.5-0.7c0.4-0.4,2.3-1.7,3.8-2.7c0.2-0.2,0.4-0.4,0.6-0.6   c0.3-0.4,6.6-10.3,8.9-14.3C337.6,401.4,337.3,400.2,336.3,399.7z"/><path d="M216.2,463.9c-1.1-0.1-2.1,0.6-2.2,1.7c-0.3,2.3-1.3,4.6-2.8,6.4c-0.7,0.8-0.6,2.1,0.2,2.8   c0.4,0.3,0.8,0.5,1.3,0.5c0.6,0,1.1-0.2,1.5-0.7c2-2.4,3.3-5.4,3.7-8.5C218.1,465.1,217.3,464.1,216.2,463.9z"/><path d="M216.2,511c-1-0.5-2.2-0.2-2.7,0.8c-0.7,1.4-1.5,2.8-2,4.4c-0.6,2-0.7,3.9-0.2,5.5   c0.3,0.9,1.1,1.4,1.9,1.4c0.2,0,0.4,0,0.6-0.1c1.1-0.3,1.7-1.4,1.3-2.5c-0.3-1.1-0.1-2.4,0.2-3.2c0.4-1.2,1-2.4,1.7-3.7   C217.6,512.7,217.2,511.5,216.2,511z"/><path d="M313.8,518.4c0.1,0,0.3,0,0.4,0c0.9,0,1.8-0.7,2-1.6c0.3-1.7,1.2-3.3,2.3-4.6c0.7-0.8,0.7-2.1-0.1-2.8   c-0.8-0.7-2.1-0.7-2.8,0.1c-1.7,1.8-2.8,4.1-3.3,6.6C312,517.1,312.7,518.2,313.8,518.4z"/></g><text x="0" y="615" fill="#000000" font-size="5px" font-weight="bold" font-family="'Helvetica Neue', Helvetica, Arial-Unicode, Arial, Sans-serif">Created by Gonza</text><text x="0" y="620" fill="#000000" font-size="5px" font-weight="bold" font-family="'Helvetica Neue', Helvetica, Arial-Unicode, Arial, Sans-serif">from the Noun Project</text></svg>